<?xml version="1.0" encoding="utf-8"?>
<!-- Generator: Adobe Illustrator 16.0.0, SVG Export Plug-In . SVG Version: 6.00 Build 0)  -->
<!DOCTYPE svg PUBLIC "-//W3C//DTD SVG 1.1//EN" "http://www.w3.org/Graphics/SVG/1.1/DTD/svg11.dtd">
<svg version="1.1" id="Layer_1" xmlns="http://www.w3.org/2000/svg" xmlns:xlink="http://www.w3.org/1999/xlink" x="0px" y="0px"
	 width="184.3px" height="200px" viewBox="8.5 0 184.3 200" enable-background="new 8.5 0 184.3 200" xml:space="preserve">
<g>
	<path d="M18,31.5l-7,0c0-8.8,16-13,28.1-15.4c16.5-3.2,38.4-5,61.7-5c23.3,0,45.2,1.8,61.7,5c12.1,2.4,28.1,6.5,28.1,15.4h-7
		c-0.2-1.1-5-5.2-23.5-8.7c-16-3-37-4.7-59.3-4.7c-22.3,0-43.3,1.7-59.3,4.7C23,26.3,18.2,30.4,18,31.5z"/>
	<path d="M18,45.5l-7,0c0-8.8,16-13,28.1-15.4c16.5-3.2,38.4-5,61.7-5c23.3,0,45.2,1.8,61.7,5c12.1,2.4,28.1,6.5,28.1,15.4h-7
		c-0.2-1.1-5-5.2-23.5-8.7c-16-3-37-4.7-59.3-4.7c-22.3,0-43.3,1.7-59.3,4.7C23,40.3,18.2,44.4,18,45.5z"/>
	<g>
		<path fill="#FFFFFF" d="M14.5,18.8v160.1c0,0,0,1.4,0,2.1c0,5.1,23.9,12.5,60.2,15v-36.7c0-5,4-9,9-9c0,0,11.3,0.6,17.3,0.6
			c6,0,17-0.6,17-0.6c5,0,9,4,9,9v36.6c35.9-2.6,60.2-9.8,60.2-14.9c0-0.7,0-2.1,0-2.1V18.8H14.5z"/>
		<path d="M180.1,25.9v152.8c-4.7,2.7-20.6,7.3-46.1,9.7v-28.9c0-8.8-7.2-16-16-16h-0.2l-0.2,0c-0.1,0-10.9,0.6-16.6,0.6
			c-5.7,0-16.8-0.6-16.9-0.6l-0.2,0h-0.2c-8.8,0-16,7.2-16,16v29.1c-25.6-2.4-41.5-7-46.1-9.7V25.9H180.1 M187.2,18.8H14.5v160.1
			c0,0,0,1.4,0,2.1c0,5.1,23.9,12.5,60.2,15v-36.7c0-5,4-9,9-9c0,0,11.3,0.6,17.3,0.6c6,0,17-0.6,17-0.6c5,0,9,4,9,9v36.6
			c35.9-2.6,60.2-9.8,60.2-14.9c0-0.7,0-2.1,0-2.1V18.8L187.2,18.8z"/>
	</g>
	<g>
		<g>
			<path fill="#231F20" d="M45.4,112.9c-0.1,1.5-0.4,2.8-1,3.9c-0.5,0.9-1.3,1.8-2.3,2.5c-1,0.7-2.5,1-4.4,0.8
				c-1.9-0.2-3.3-0.9-4.4-1.8c-1-0.9-1.7-1.9-2.2-3c-0.5-1.2-0.9-2.6-0.9-4.1c0.1-8.7,0.2-13,0.3-21.7c0.1-1.4,0.4-2.8,1-3.8
				c0.5-0.9,1.2-1.9,2.2-2.5c1-0.6,2.5-1,4.4-0.7c1.9,0.2,3.3,0.9,4.3,1.7c1,0.9,1.7,2,2.2,3c0.5,1.2,0.9,2.6,0.9,4.1
				C45.5,99.9,45.5,104.2,45.4,112.9z M40,90.6c0-1-0.2-1.8-0.7-2.4c-0.2-0.3-0.7-0.5-1.1-0.5c-1-0.1-1.5,0.6-1.7,1.2
				c-0.1,0.4-0.2,0.8-0.2,1.3c-0.1,8.7-0.2,13-0.3,21.7c0,1.1,0.2,1.8,0.8,2.4c0.2,0.3,0.6,0.5,1.1,0.5c1,0.1,1.4-0.5,1.7-1.2
				c0.1-0.3,0.2-0.8,0.2-1.3C39.9,103.6,39.9,99.3,40,90.6z"/>
			<path fill="#231F20" d="M59.7,84.8c2.2,0.2,3.3,0.2,5.5,0.4c-2,12.2-4.1,24.3-6.1,36.5c-2.3-0.2-3.4-0.3-5.7-0.5
				c-1.8-12.5-3.7-24.9-5.5-37.4c2.2,0.2,3.3,0.3,5.5,0.5c1,8.2,1.6,12.3,2.6,20.5c0.1,0.6,0.1,0.9,0.2,1.6c0.1,0,0.2,0,0.3,0
				c0.1-0.6,0.1-0.9,0.2-1.5C57.9,96.9,58.5,92.8,59.7,84.8z"/>
			<path fill="#231F20" d="M67.7,85.4c5.1,0.3,7.7,0.4,12.9,0.6c0,2.2,0,3.3,0,5.6c-2.9-0.1-4.4-0.2-7.3-0.3c0,3.9,0,5.8-0.1,9.7
				c2.1,0.1,3.1,0.2,5.2,0.2c0,2.4,0,3.5,0,5.9c-2.1-0.1-3.1-0.1-5.2-0.2c0,4.1,0,6.1-0.1,10.1c2.9,0.1,4.4,0.2,7.3,0.3
				c0,2.2,0,3.3,0,5.6c-5.2-0.2-7.8-0.3-13-0.6C67.6,109.9,67.6,97.7,67.7,85.4z"/>
			<path fill="#231F20" d="M93.7,123.2c-1.2-6.2-1.8-9.4-2.9-15.6c-0.6,0-0.9,0-1.5,0c0,6.2,0,9.3,0,15.6c-2.3,0-3.4-0.1-5.7-0.1
				c0-12.3,0.1-24.6,0.1-36.9c2.3,0.1,3.4,0.1,5.6,0.1c6.7,0.1,9.6,3.8,9.6,10.8c0,3.7-1,7-3.1,8.4c1.4,7.2,2.2,10.7,3.6,17.9
				C97.1,123.2,96,123.2,93.7,123.2z M89.3,102.5c0.8,0,1.8-0.1,2.7-0.8c0.8-0.7,1.5-2,1.5-4.6c0-2.6-0.7-4-1.5-4.7
				c-0.8-0.7-1.9-0.8-2.7-0.8C89.3,96,89.3,98.2,89.3,102.5z"/>
			<path fill="#231F20" d="M102.6,123.2c0-12.3,0-24.6,0-36.9c2,0,3,0,5,0c3.3,0,5.9,0.5,7.7,2c1.7,1.5,2.6,3.9,2.6,7.6
				c0,1.8-0.1,3.1-0.7,4.3c-0.6,1.2-2.8,3.3-2.8,3.4c0,0.3,2.5,2.1,3.3,4.4c0.4,1.1,0.6,2.6,0.6,4.5c0,2.8-0.5,5.2-1.8,7.2
				c-1.3,1.9-3.6,3.3-6.9,3.5C106.7,123.2,105.3,123.2,102.6,123.2z M108.2,101.5c0.5,0,1.6,0,2.5-0.6c0.9-0.6,1.7-1.8,1.7-4.4
				c0-2.6-0.7-3.7-1.7-4.3c-0.9-0.6-2-0.5-2.5-0.5C108.2,95.6,108.2,97.6,108.2,101.5z M108.2,117.8c0.5,0,1.6,0.1,2.5-0.6
				c0.9-0.7,1.7-2.1,1.7-5.1s-0.7-4.5-1.7-5.1c-0.9-0.6-2-0.5-2.5-0.5C108.2,111,108.2,113.3,108.2,117.8z"/>
			<path fill="#231F20" d="M136.4,114.6c0,1.5-0.4,2.9-0.9,4.1c-0.5,1-1.2,2-2.2,2.8c-1,0.8-2.5,1.4-4.3,1.5
				c-1.9,0.1-3.4-0.3-4.4-1.1c-1-0.7-1.7-1.7-2.2-2.6c-0.6-1.1-0.9-2.5-1-4c0-8.7-0.1-13-0.1-21.7c0-1.5,0.4-2.8,0.9-4
				c0.5-1,1.1-2.1,2.2-2.8c1-0.8,2.5-1.4,4.4-1.5c1.9-0.1,3.3,0.3,4.3,1c1,0.7,1.8,1.7,2.3,2.6c0.6,1.1,0.9,2.5,1,3.9
				C136.3,101.5,136.3,105.9,136.4,114.6z M130.6,93.2c0-1-0.2-1.7-0.7-2.3c-0.2-0.2-0.7-0.4-1.1-0.3c-1,0-1.4,0.8-1.7,1.4
				c-0.1,0.4-0.2,0.9-0.2,1.4c0,8.7,0.1,13,0.1,21.7c0,1.1,0.3,1.8,0.8,2.3c0.2,0.2,0.6,0.4,1.1,0.3c1,0,1.4-0.7,1.7-1.4
				c0.1-0.3,0.2-0.8,0.2-1.4C130.7,106.2,130.6,101.9,130.6,93.2z"/>
			<path fill="#231F20" d="M150.4,121.1c-1.2-6.1-1.8-9.2-3.1-15.3c-0.6,0.1-0.9,0.1-1.5,0.1c0.1,6.2,0.1,9.3,0.1,15.5
				c-2.3,0.2-3.4,0.3-5.7,0.4c-0.1-12.3-0.2-24.6-0.3-36.9c2.2-0.2,3.4-0.2,5.6-0.4c6.7-0.5,9.6,2.8,9.7,9.8c0,3.7-0.9,7.1-3,8.7
				c1.5,7,2.3,10.5,3.8,17.5C153.7,120.8,152.6,120.9,150.4,121.1z M145.7,100.9c0.8-0.1,1.8-0.2,2.7-1c0.8-0.8,1.5-2.2,1.5-4.8
				c0-2.6-0.7-4-1.6-4.6c-0.8-0.6-1.9-0.6-2.7-0.5C145.7,94.3,145.7,96.5,145.7,100.9z"/>
			<path fill="#231F20" d="M158.7,83.4c5.1-0.5,7.7-0.8,12.8-1.5c0,2.2,0,3.3,0.1,5.6c-2.9,0.4-4.3,0.5-7.2,0.9
				c0,3.9,0.1,5.8,0.1,9.7c2.1-0.2,3.1-0.4,5.2-0.6c0,2.4,0,3.5,0.1,5.9c-2.1,0.3-3.1,0.4-5.2,0.6c0.1,4.1,0.1,6.1,0.1,10.1
				c2.9-0.3,4.4-0.5,7.3-0.9c0,2.2,0,3.3,0.1,5.6c-5.2,0.7-7.7,0.9-12.9,1.5C159,108,158.9,95.7,158.7,83.4z"/>
		</g>
	</g>
	<g>
		<g>
			<path fill="#231F20" d="M87.3,166.3c-0.1-0.3-0.2-0.5-0.3-0.8c-0.1,0-0.1,0-0.2,0c0,4,0,6,0,9.9c-1.1-0.1-1.7-0.1-2.8-0.3
				c0-7,0-10.5,0-17.5c1.1,0.1,1.6,0.2,2.7,0.2c1.2,3.7,1.8,5.6,3,9.3c0.1,0.3,0.2,0.5,0.3,0.8c0.1,0,0.1,0,0.2,0c0-4,0-6,0-9.9
				c1.1,0.1,1.7,0.1,2.8,0.2c0,7,0,10.5,0,17.5c-1.1,0-1.6-0.1-2.7-0.1C89.1,171.9,88.5,170,87.3,166.3z"/>
			<path fill="#231F20" d="M95.3,158.4c2.8,0.1,4.2,0.1,7,0.1c0,1.1,0,1.6,0,2.6c-1.6,0-2.4,0-3.9,0c0,1.8,0,2.8,0,4.6
				c1.1,0,1.7,0,2.8,0c0,1.1,0,1.7,0,2.8c-1.1,0-1.7,0-2.8,0c0,1.9,0,2.9,0,4.8c1.6,0,2.4,0,3.9,0c0,1.1,0,1.6,0,2.6
				c-2.8,0-4.2,0-7-0.1C95.3,168.9,95.3,165.4,95.3,158.4z"/>
			<path fill="#231F20" d="M108.4,175.7c-1,0.1-1.4,0.1-2.4,0.1c-1.1-7-1.7-10.4-2.8-17.4c1.1,0,1.7,0,2.8-0.1
				c0.5,3.6,0.7,5.4,1.2,9c0,0.2,0,0.3,0.1,0.6c0.1,0,0.1,0,0.2,0c0-0.2,0.1-0.3,0.1-0.6c0.5-3.7,0.8-5.5,1.3-9.2
				c0.9,0,1.3-0.1,2.2-0.1c0.5,3.6,0.8,5.4,1.3,9c0,0.2,0.1,0.3,0.1,0.6c0.1,0,0.1,0,0.2,0c0-0.2,0-0.3,0.1-0.6
				c0.5-3.7,0.7-5.5,1.2-9.2c1.1-0.1,1.7-0.2,2.8-0.3c-1.1,7.1-1.7,10.7-2.8,17.8c-1,0.1-1.4,0.1-2.4,0.2c-0.6-3.3-0.9-4.9-1.4-8.2
				c-0.1-0.4-0.1-0.6-0.2-1c0,0-0.1,0-0.1,0c-0.1,0.4-0.1,0.6-0.2,1C109.3,170.7,109,172.4,108.4,175.7z"/>
			<path fill="#231F20" d="M84.5,185.1c0,0.1,0.1,0.1,0.1,0.2c0,0,0,0,0.1,0c0-0.1,0.1-0.1,0.1-0.2c0.6-2.2,0.9-3.3,1.5-5.5
				c1.2,0.1,1.8,0.1,3,0.2c-1.3,3.9-1.9,5.9-3.1,9.8c0,3,0,4.5,0,7.5c-1.2-0.1-1.8-0.2-3.1-0.3c0-3,0-4.5,0-7.5
				c-1.2-4.2-1.9-6.2-3.1-10.4c1.2,0.2,1.8,0.2,3,0.4C83.6,181.6,83.9,182.8,84.5,185.1z"/>
			<path fill="#231F20" d="M98.6,194.2c0,0.7-0.2,1.4-0.5,1.9c-0.3,0.5-0.7,0.9-1.2,1.3c-0.6,0.4-1.3,0.6-2.4,0.5
				c-1,0-1.8-0.3-2.4-0.7c-0.6-0.4-0.9-0.9-1.2-1.4c-0.3-0.6-0.5-1.2-0.5-1.9c0-4.1,0-6.2,0-10.3c0-0.7,0.2-1.3,0.5-1.8
				c0.3-0.5,0.6-0.9,1.2-1.2c0.6-0.3,1.4-0.5,2.4-0.5c1,0,1.8,0.3,2.4,0.7c0.6,0.4,1,0.9,1.2,1.3c0.3,0.5,0.5,1.2,0.5,1.9
				C98.6,188,98.6,190,98.6,194.2z M95.5,183.8c0-0.5-0.1-0.8-0.4-1.1c-0.1-0.1-0.4-0.2-0.6-0.2c-0.5,0-0.8,0.3-0.9,0.6
				c-0.1,0.2-0.1,0.4-0.1,0.6c0,4.1,0,6.2,0,10.3c0,0.5,0.1,0.9,0.4,1.1c0.1,0.1,0.3,0.2,0.6,0.2c0.5,0,0.8-0.3,0.9-0.6
				c0.1-0.2,0.1-0.4,0.1-0.6C95.5,190,95.5,187.9,95.5,183.8z"/>
			<path fill="#231F20" d="M106.2,197.6c-0.6-2.9-1-4.4-1.6-7.3c-0.3,0-0.5,0-0.8,0c0,3,0,4.4,0,7.4c-1.2,0-1.8,0-3.1,0
				c0-7,0-10.5,0-17.5c1.2,0,1.8,0,3.1,0c3.7-0.1,5.2,1.5,5.2,4.8c0,1.7-0.5,3.3-1.7,4.1c0.8,3.4,1.2,5,2,8.4
				C108,197.6,107.4,197.6,106.2,197.6z M103.7,188c0.4,0,1-0.1,1.5-0.4c0.5-0.3,0.8-1,0.8-2.2c0-1.2-0.4-1.9-0.8-2.2
				c-0.5-0.3-1-0.3-1.4-0.3C103.7,184.8,103.7,185.9,103.7,188z"/>
			<path fill="#231F20" d="M114,179.7c0,2.4,0,3.7,0,6.1c0,0,0.1,0,0.1,0c0.1-0.1,0.1-0.2,0.1-0.3c1-2.4,1.5-3.6,2.5-6.1
				c1.2-0.1,1.8-0.2,3-0.3c-1.1,2.4-1.7,3.7-2.8,6.1c1.3,4.6,1.9,6.8,3.2,11.4c-1.2,0.2-1.8,0.2-3,0.3c-0.9-3-1.3-4.4-2.1-7.4
				c0-0.1-0.1-0.2-0.1-0.4c0,0-0.1,0-0.1,0c-0.1,0.2-0.1,0.2-0.2,0.4c-0.3,0.6-0.4,0.9-0.7,1.5c0,2.5,0,3.7,0,6.2
				c-1.2,0.1-1.8,0.2-3.1,0.2c0-7,0-10.5,0-17.5C112.2,179.8,112.8,179.8,114,179.7z"/>
		</g>
	</g>
	<g>
		<ellipse cx="100.8" cy="18.8" rx="86.3" ry="16.8"/>
		<path d="M100.8,36c-48.6,0-86.7-7.6-86.7-17.2c0-9.6,38.1-17.2,86.7-17.2c48.6,0,86.7,7.6,86.7,17.2C187.5,28.5,149.4,36,100.8,36
			z M100.8,2.4c-47.4,0-86,7.4-86,16.5c0,9.1,38.6,16.5,86,16.5c47.4,0,86-7.4,86-16.5C186.8,9.8,148.2,2.4,100.8,2.4z"/>
	</g>
	<path d="M100.8,65.9c-23.3,0-45.2-1.8-61.7-5C27.1,58.5,11,54.4,11,45.5h7c0.2,1.1,5,5.2,23.5,8.7c16,3,37,4.7,59.3,4.7
		c22.3,0,43.3-1.7,59.3-4.7c18.5-3.5,23.3-7.5,23.5-8.7l7,0c0,8.8-16,13-28.1,15.4C146,64.1,124.1,65.9,100.8,65.9z"/>
	<path d="M100.8,51.8c-23.3,0-45.2-1.8-61.7-5C27.1,44.5,11,40.3,11,31.5h7c0.2,1.1,5,5.2,23.5,8.7c16,3,37,4.7,59.3,4.7
		c22.3,0,43.3-1.7,59.3-4.7c18.5-3.5,23.3-7.5,23.5-8.7l7,0c0,8.8-16,13-28.1,15.4C146,50.1,124.1,51.8,100.8,51.8z"/>
</g>
</svg>
